<?xml version="1.0" encoding="iso-8859-1"?>
<!-- Uploaded to: SVG Repo, www.svgrepo.com, Generator: SVG Repo Mixer Tools -->
<svg version="1.1" id="Layer_1" xmlns="http://www.w3.org/2000/svg" xmlns:xlink="http://www.w3.org/1999/xlink" 
	 viewBox="0 0 512 512" xml:space="preserve">
<path style="fill:#2B339B;" d="M110.933,154.027v72.107c-4.693,0-8.533,3.84-8.533,8.533v82.005l-85.333,92.416V255.061
	L110.933,154.027z"/>
<g>
	<path style="fill:#1E2280;" d="M110.933,154.027v79.027c-4.693,0-8.533,4.002-8.533,8.9V320l-8.533,8.533V166.4L110.933,154.027z"
		/>
	<path style="fill:#1E2280;" d="M110.933,145.493v79.027c-4.693,0-8.533,4.002-8.533,8.9v83.251l-8.533,11.861V157.867
		L110.933,145.493z"/>
</g>
<polygon style="fill:#0F7BE4;" points="494.933,149.333 494.933,308.676 409.6,405.163 409.6,244.941 "/>
<polygon style="fill:#215EFF;" points="494.933,149.333 494.933,308.676 469.333,337.63 469.333,178.022 "/>
<path d="M511.915,133.205c0.341-2.645-0.597-5.291-2.645-7.168c-3.499-3.243-8.875-2.987-12.032,0.427l-70.571,76.459
	c0,0-0.171-113.92-0.171-114.261l23.723-27.648c2.133-2.56,2.645-6.059,1.28-9.131c-1.365-2.987-4.437-4.949-7.765-4.949h-179.2
	c-2.475,0-4.864,1.109-6.485,2.987l-102.4,119.467c-2.133,2.56-2.645,6.059-1.28,9.131c1.365,2.987,4.437,4.949,7.765,4.949h34.133
	v42.667H128v-93.867c0-3.499-2.133-6.656-5.376-7.936s-6.997-0.427-9.387,2.133L2.304,245.931C0.853,247.467,0,249.6,0,251.733
	v179.2c0,3.499,2.133,6.656,5.461,7.936c0.939,0.427,2.048,0.597,3.072,0.597c2.304,0,4.608-0.939,6.229-2.731l87.637-94.891
	v114.688c0,4.693,3.84,8.533,8.533,8.533H332.8c4.693,0,8.533-3.84,8.533-8.533v-128h51.2v94.805c0,3.584,2.133,6.741,5.461,8.021
	c1.024,0.341,2.048,0.512,3.072,0.512c2.389,0,4.608-0.939,6.315-2.731l102.4-111.872c1.451-1.621,2.219-3.669,2.219-5.803V134.144
	C512,133.803,512,133.461,511.915,133.205z M110.933,226.133c-4.693,0-8.533,3.84-8.533,8.533v82.005l-85.333,92.416V255.061
	l93.867-101.035V226.133z M180.651,166.4L268.459,64h156.757l-87.808,102.4H180.651z M324.267,448h-204.8V243.2h204.8V448z
	 M394.837,237.397c-1.536,1.621-2.304,3.669-2.304,5.803v68.267h-51.2v-76.8c0-4.693-3.84-8.533-8.533-8.533H213.333v-42.667h128
	c2.475,0,4.864-1.109,6.485-2.987L384,138.24l25.6-29.867c0,0,0.171,112.128,0.341,112.64L394.837,237.397z M494.933,308.139
	l-25.6,27.989l-59.733,65.28v-154.88l59.733-64.683l25.6-27.733V308.139z"/>
<path style="fill:#1E2280;" d="M409.941,221.013l-15.104,16.384c-1.536,1.621-2.304,3.669-2.304,5.803v68.267H384V138.24
	l25.6-29.867C409.6,108.373,409.771,220.501,409.941,221.013z"/>
<path style="fill:#2B339B;" d="M384,138.24v173.227h-42.667v-76.8c0-4.693-3.84-8.533-8.533-8.533H213.333v-42.667h128
	c2.475,0,4.864-1.109,6.485-2.987L384,138.24z"/>
<rect x="119.467" y="243.2" style="fill:#0F7BE4;" width="204.8" height="204.8"/>
<rect x="281.6" y="243.2" style="fill:#215EFF;" width="42.667" height="204.8"/>
<polygon style="fill:#0F7BE4;" points="426.667,64 341.427,166.4 179.2,166.4 268.459,64 "/>
</svg>