<?xml version="1.0" encoding="utf-8"?>
<!-- Generator: Adobe Illustrator 27.2.0, SVG Export Plug-In . SVG Version: 6.00 Build 0)  -->
<svg version="1.1" id="Layer_1" xmlns="http://www.w3.org/2000/svg" xmlns:xlink="http://www.w3.org/1999/xlink" x="0px" y="0px"
	 viewBox="0 0 512 512" style="enable-background:new 0 0 512 512;" xml:space="preserve">
<style type="text/css">
	.st0{fill:#212121;}
</style>
<g>
	<path class="st0" d="M87.91,0.78c12.05,2.96,20.51,13.76,20.51,26.17v215.58c0,14.88-12.06,26.94-26.95,26.94
		c-14.88,0-26.95-12.06-26.95-26.94V94.3c-3.94,2.98-8.15,5.98-12.63,8.97c-12.38,8.26-29.11,4.91-37.37-7.47
		C-3.73,83.41-0.38,66.68,12,58.42c17.94-11.96,29.72-23.71,36.83-32.07c3.56-4.19,5.95-7.54,7.35-9.66l1.39-2.2l0.17-0.29
		C63.55,3.38,75.96-2.16,87.91,0.78z M431.16,0c-44.65,0-80.84,36.19-80.84,80.84v107.79c0,44.65,36.19,80.84,80.84,80.84
		c44.65,0,80.84-36.19,80.84-80.84V80.84C512,36.2,475.81,0,431.16,0z M404.21,80.84c0-14.88,12.06-26.95,26.95-26.95
		c14.88,0,26.95,12.06,26.95,26.95v107.79c0,14.88-12.06,26.95-26.95,26.95c-14.88,0-26.95-12.07-26.95-26.95V80.84z M53.89,343.58
		c0-11.16,9.05-20.21,20.21-20.21h80.84c11.16,0,20.21,9.05,20.21,20.21c0,11.16-9.05,20.21-20.21,20.21H94.32v40.5h47.16
		c11.16,0,20.21,9.05,20.21,20.21c0,11.16-9.05,20.21-20.21,20.21H94.32v46.58c0,11.16-9.05,20.21-20.21,20.21
		s-20.21-9.05-20.21-20.21V343.58z M222.32,323.37c-11.16,0-20.21,9.05-20.21,20.21v148.21c0,11.16,9.05,20.21,20.21,20.21
		c11.16,0,20.21-9.05,20.21-20.21v-47.16h20.21c33.48,0,60.63-27.14,60.63-60.63c0-33.49-27.15-60.63-60.63-60.63H222.32z
		 M262.74,404.21h-20.21v-40.42h20.21c11.16,0,20.21,9.05,20.21,20.21C282.95,395.16,273.9,404.21,262.74,404.21z M357.05,380.63
		c0-31.63,25.64-57.26,57.26-57.26h16.84c29.77,0,53.89,24.13,53.89,53.89c0,11.16-9.05,20.21-20.21,20.21
		c-11.16,0-20.21-9.05-20.21-20.21c0-7.44-6.03-13.47-13.47-13.47h-16.84c-9.3,0-16.84,7.54-16.84,16.84
		c0,9.3,7.54,16.84,16.84,16.84h13.47c31.62,0,57.26,25.64,57.26,57.26c0,31.62-25.64,57.26-57.26,57.26h-16.84
		c-29.77,0-53.89-24.13-53.89-53.89c0-11.16,9.05-20.21,20.21-20.21c11.16,0,20.21,9.05,20.21,20.21c0,7.44,6.03,13.47,13.47,13.47
		h16.84c9.3,0,16.84-7.54,16.84-16.84c0-9.3-7.54-16.84-16.84-16.84h-13.47C382.69,437.89,357.05,412.26,357.05,380.63z
		 M165.15,85.65c13.62,5.45,29.05-1,34.78-14.42l0.83-1.45c0.95-1.5,2.61-3.75,5.15-6.06c4.64-4.22,13.44-9.83,29.87-9.83
		c11.45,0,20.12,3.49,25.46,8.01c4.92,4.16,8.22,10.11,8.22,18.94c0,14.79-4.64,23.3-11.39,30.28
		c-8.14,8.43-19.47,14.92-35.67,24.18c-14.69,8.4-33.71,19.28-48.44,35.83c-15.81,17.76-25.77,40.78-25.77,71.39
		c0,14.88,12.06,26.95,26.95,26.95h121.26c14.88,0,26.95-12.06,26.95-26.95c0-14.88-12.06-26.94-26.95-26.94H208.1
		c1.78-3.25,3.86-6.06,6.13-8.61c8.01-9,19.31-15.94,34.93-24.88l2.76-1.58c13.76-7.84,31.27-17.81,44.93-31.96
		c15.99-16.57,26.51-38.32,26.51-67.72c0-24.66-10.26-45.66-27.3-60.07C279.47,6.72,257.83,0,235.79,0
		c-30.72,0-52.24,11.22-66.13,23.85c-6.72,6.11-11.38,12.29-14.43,17.1l-3.51,6.18l-1.01,2.13l-0.57,1.33c0,0-5.61,14.02-0.01,0.03
		C144.61,64.44,151.33,80.13,165.15,85.65z"/>
</g>
</svg>
