<?xml version="1.0" encoding="utf-8"?>
<!-- Generator: Adobe Illustrator 27.2.0, SVG Export Plug-In . SVG Version: 6.00 Build 0)  -->
<svg version="1.1" id="Layer_1" xmlns="http://www.w3.org/2000/svg" xmlns:xlink="http://www.w3.org/1999/xlink" x="0px" y="0px"
	 viewBox="0 0 512 512" style="enable-background:new 0 0 512 512;" xml:space="preserve">
<style type="text/css">
	.st0{fill:#212121;}
</style>
<g>
	<path class="st0" d="M249.26,323.37c33.48,0,60.63,27.15,60.63,60.63c0,32.09-24.93,58.36-56.48,60.49l-4.15,0.14h-20.21v47.16
		c0,10.23-7.6,18.69-17.47,20.03l-2.74,0.18c-10.23,0-18.69-7.6-20.03-17.47l-0.18-2.74V343.58c0-10.23,7.6-18.69,17.47-20.03
		l2.74-0.18H249.26z M249.26,363.79h-20.21v40.42h20.21c11.16,0,20.21-9.05,20.21-20.21c0-10.23-7.6-18.69-17.47-20.03
		L249.26,363.79z M417.68,323.37c29.77,0,53.89,24.13,53.89,53.89c0,11.16-9.05,20.21-20.21,20.21c-10.23,0-18.69-7.6-20.03-17.47
		l-0.18-2.74c0-6.62-4.77-12.12-11.05-13.25l-2.42-0.22h-16.84c-9.3,0-16.84,7.54-16.84,16.84c0,8.46,6.23,15.46,14.35,16.66
		l2.49,0.18h13.47c31.62,0,57.26,25.64,57.26,57.26c0,30.25-23.46,55.02-53.17,57.12l-4.09,0.14h-16.84
		c-29.77,0-53.89-24.13-53.89-53.89c0-11.16,9.05-20.21,20.21-20.21c10.23,0,18.69,7.6,20.03,17.47l0.18,2.74
		c0,6.62,4.77,12.12,11.05,13.26l2.42,0.22h16.84c9.3,0,16.84-7.54,16.84-16.84c0-8.46-6.23-15.46-14.35-16.66l-2.49-0.18h-13.47
		c-31.63,0-57.26-25.64-57.26-57.26c0-30.25,23.46-55.02,53.17-57.12l4.09-0.14H417.68z M141.47,323.37
		c11.16,0,20.21,9.05,20.21,20.21c0,10.23-7.6,18.69-17.47,20.03l-2.74,0.18l-60.63-0.02v40.5l47.16,0.02
		c11.16,0,20.21,9.05,20.21,20.21c0,10.23-7.6,18.69-17.47,20.03l-2.74,0.18l-47.16-0.02v46.59c0,10.23-7.6,18.69-17.47,20.03
		l-2.74,0.18c-10.23,0-18.69-7.6-20.03-17.47l-0.18-2.74v-147.7c0-10.23,7.6-18.69,17.47-20.03l2.74-0.18H141.47z M336.84,0
		c43.05,0,78.25,33.66,80.7,76.09l0.14,4.75v107.79c0,44.65-36.19,80.84-80.84,80.84c-43.05,0-78.25-33.65-80.7-76.09l-0.14-4.75
		V80.84C256,36.19,292.19,0,336.84,0z M336.84,53.89c-13.82,0-25.21,10.4-26.77,23.81l-0.18,3.14v107.79
		c0,14.88,12.06,26.95,26.95,26.95c13.82,0,25.21-10.4,26.77-23.81l0.18-3.14V80.84C363.79,65.96,351.73,53.89,336.84,53.89z
		 M148.2,107.79c14.88,0,26.95-12.06,26.95-26.95s-12.06-26.95-26.95-26.95c-5.01,0-9.69,1.37-13.71,3.74l-2.9,1.75
		c-6.46,3.93-13.13,7.98-20.57,7.98c-22.26,0-39.22-21.1-24.98-38.21C100.86,11.34,123.21,0,148.2,0
		c44.65,0,80.84,36.19,80.84,80.84c0,20.71-7.79,39.59-20.59,53.89c12.8,14.3,20.59,33.19,20.59,53.89
		c0,44.65-36.2,80.84-80.84,80.84c-24.99,0-47.34-11.34-62.17-29.16c-14.24-17.11,2.72-38.21,24.98-38.21
		c7.45,0,14.12,4.06,20.57,7.98l2.9,1.75c4.02,2.38,8.7,3.74,13.71,3.74c14.88,0,26.95-12.06,26.95-26.95
		c0-14.88-12.06-26.95-26.95-26.95c-14.88-0.01-26.94-12.07-26.94-26.95C121.26,119.86,133.32,107.8,148.2,107.79z"/>
</g>
</svg>
