<?xml version="1.0" encoding="utf-8"?>
<!-- Generator: Adobe Illustrator 27.2.0, SVG Export Plug-In . SVG Version: 6.00 Build 0)  -->
<svg version="1.1" id="Layer_1" xmlns="http://www.w3.org/2000/svg" xmlns:xlink="http://www.w3.org/1999/xlink" x="0px" y="0px"
	 viewBox="0 0 512 512" style="enable-background:new 0 0 512 512;" xml:space="preserve">
<style type="text/css">
	.st0{fill:#212121;}
</style>
<g>
	<path class="st0" d="M249.26,323.37c33.48,0,60.63,27.15,60.63,60.63c0,32.09-24.93,58.36-56.48,60.49l-4.15,0.14h-20.21v47.16
		c0,10.23-7.6,18.69-17.47,20.03l-2.74,0.18c-10.23,0-18.69-7.6-20.03-17.47l-0.18-2.74V343.58c0-10.23,7.6-18.69,17.47-20.03
		l2.74-0.18H249.26z M417.68,323.37c29.77,0,53.89,24.13,53.89,53.89c0,11.16-9.05,20.21-20.21,20.21
		c-10.23,0-18.69-7.6-20.03-17.47l-0.18-2.74c0-6.62-4.77-12.12-11.05-13.25l-2.42-0.22h-16.84c-9.3,0-16.84,7.54-16.84,16.84
		c0,8.46,6.23,15.46,14.35,16.66l2.49,0.18h13.47c31.62,0,57.26,25.64,57.26,57.26c0,30.25-23.46,55.02-53.17,57.12l-4.09,0.14
		h-16.84c-29.77,0-53.89-24.13-53.89-53.89c0-11.16,9.05-20.21,20.21-20.21c10.23,0,18.69,7.6,20.03,17.47l0.18,2.74
		c0,6.62,4.77,12.12,11.05,13.26l2.42,0.22h16.84c9.3,0,16.84-7.54,16.84-16.84c0-8.46-6.23-15.46-14.35-16.66l-2.49-0.18h-13.47
		c-31.63,0-57.26-25.64-57.26-57.26c0-30.25,23.46-55.02,53.17-57.12l4.09-0.14H417.68z M141.47,323.37
		c11.16,0,20.21,9.05,20.21,20.21c0,10.23-7.6,18.69-17.47,20.03l-2.74,0.18l-60.63-0.02v40.5l47.16,0.02
		c11.16,0,20.21,9.05,20.21,20.21c0,10.23-7.6,18.69-17.47,20.03l-2.74,0.18l-47.16-0.02v46.59c0,10.23-7.6,18.69-17.47,20.03
		l-2.74,0.18c-10.23,0-18.69-7.6-20.03-17.47l-0.18-2.74v-147.7c0-10.23,7.6-18.69,17.47-20.03l2.74-0.18H141.47z M249.26,363.79
		h-20.21v40.42h20.21c11.16,0,20.21-9.05,20.21-20.21c0-10.23-7.6-18.69-17.47-20.03L249.26,363.79z M154.98,0
		c40.95,0,74.14,33.19,74.14,74.14c0,14.88-12.06,26.95-26.95,26.95c-13.82,0-25.21-10.4-26.77-23.81l-0.18-3.14
		c0-10.25-7.62-18.72-17.5-20.06l-2.75-0.19h-6.7c-13.82,0-25.21,10.4-26.77,23.81l-0.18,3.14l0,31.55c8.43-2.98,17.5-4.6,26.94-4.6
		c44.65,0,80.84,36.19,80.84,80.84c0,44.65-36.19,80.84-80.84,80.84s-80.84-36.19-80.84-80.84l0.05-2.84l-0.05-1.33V80.84
		c0-43.05,33.65-78.25,76.09-80.7L148.28,0H154.98z M336.84,0c43.05,0,78.25,33.66,80.7,76.09l0.14,4.75v107.79
		c0,44.65-36.19,80.84-80.84,80.84c-43.05,0-78.25-33.65-80.7-76.09l-0.14-4.75V80.84C256,36.19,292.19,0,336.84,0z M148.28,161.68
		c-14.88,0-26.95,12.06-26.95,26.95c0,14.88,12.06,26.95,26.95,26.95s26.95-12.06,26.95-26.95
		C175.23,173.75,163.16,161.68,148.28,161.68z M336.84,53.89c-13.82,0-25.21,10.4-26.77,23.81l-0.18,3.14v107.79
		c0,14.88,12.06,26.95,26.95,26.95c13.82,0,25.21-10.4,26.77-23.81l0.18-3.14V80.84C363.79,65.96,351.73,53.89,336.84,53.89z"/>
</g>
</svg>
