<svg width="256" height="256" viewBox="0 0 256 256" fill="none" xmlns="http://www.w3.org/2000/svg">
  <defs>
    <linearGradient id="planetCore" x1="60" y1="54" x2="196" y2="202" gradientUnits="userSpaceOnUse">
      <stop offset="0" stop-color="#1D5FBC"/>
      <stop offset="0.52" stop-color="#0D205C"/>
      <stop offset="1" stop-color="#050B2A"/>
    </linearGradient>
    <linearGradient id="planetRim" x1="78" y1="42" x2="184" y2="214" gradientUnits="userSpaceOnUse">
      <stop offset="0" stop-color="#FFE4A8"/>
      <stop offset="0.38" stop-color="#A9EEFF"/>
      <stop offset="0.7" stop-color="#648BFF"/>
      <stop offset="1" stop-color="#162A7C"/>
    </linearGradient>
    <linearGradient id="orbitStroke" x1="32" y1="70" x2="224" y2="178" gradientUnits="userSpaceOnUse">
      <stop offset="0" stop-color="#D8F7FF"/>
      <stop offset="0.24" stop-color="#7489FF"/>
      <stop offset="0.54" stop-color="#FFD99D"/>
      <stop offset="0.76" stop-color="#FFB86B"/>
      <stop offset="1" stop-color="#FFF2C4"/>
    </linearGradient>
    <linearGradient id="ringShadow" x1="36" y1="188" x2="120" y2="132" gradientUnits="userSpaceOnUse">
      <stop offset="0" stop-color="#04081E"/>
      <stop offset="1" stop-color="#192C84"/>
    </linearGradient>
    <filter id="planetGlow" x="30" y="24" width="196" height="208" filterUnits="userSpaceOnUse" color-interpolation-filters="sRGB">
      <feFlood flood-opacity="0" result="BackgroundImageFix"/>
      <feBlend mode="normal" in="SourceGraphic" in2="BackgroundImageFix" result="shape"/>
      <feGaussianBlur stdDeviation="10" result="effect1_foregroundBlur"/>
    </filter>
    <filter id="orbitGlow" x="14" y="34" width="228" height="188" filterUnits="userSpaceOnUse" color-interpolation-filters="sRGB">
      <feFlood flood-opacity="0" result="BackgroundImageFix"/>
      <feBlend mode="normal" in="SourceGraphic" in2="BackgroundImageFix" result="shape"/>
      <feGaussianBlur stdDeviation="4" result="effect1_foregroundBlur"/>
    </filter>
  </defs>

  <g filter="url(#planetGlow)" opacity="0.55">
    <circle cx="128" cy="128" r="83" stroke="url(#planetRim)" stroke-width="10"/>
  </g>

  <circle cx="128" cy="128" r="83" fill="url(#planetCore)"/>
  <circle cx="128" cy="128" r="76" stroke="url(#planetRim)" stroke-width="4"/>
  <path d="M86 91C106 73 140 68 172 79" stroke="#F5D797" stroke-width="5" stroke-linecap="round" opacity="0.95"/>
  <path d="M79 109C94 94 120 88 145 90C161 91 176 96 187 104" stroke="#F1D8A4" stroke-width="4" stroke-linecap="round" opacity="0.86"/>
  <path d="M82 145C100 160 128 168 155 165" stroke="#4D79D0" stroke-width="5" stroke-linecap="round" opacity="0.52"/>

  <g fill="#D8DAD7" opacity="0.96">
    <circle cx="86" cy="111" r="6"/>
    <circle cx="103" cy="82" r="5"/>
    <circle cx="128" cy="66" r="10"/>
    <circle cx="184" cy="98" r="6"/>
    <circle cx="194" cy="170" r="6"/>
    <circle cx="178" cy="182" r="4.5"/>
    <circle cx="170" cy="174" r="3.5"/>
  </g>

  <g fill="#DDDCCF" opacity="0.95">
    <rect x="69" y="77" width="8" height="14" rx="2" transform="rotate(-48 69 77)"/>
    <rect x="81" y="86" width="8" height="14" rx="2" transform="rotate(-48 81 86)"/>
  </g>

  <path d="M177 182L185 172L191 178" stroke="#D8DAD7" stroke-width="3.5" stroke-linecap="round" stroke-linejoin="round" opacity="0.92"/>

  <path d="M83 90C43 110 20 139 26 162C34 191 85 196 141 173C176 159 205 135 223 108" stroke="url(#ringShadow)" stroke-width="14" stroke-linecap="round" opacity="0.92"/>

  <g filter="url(#orbitGlow)">
    <path d="M81 88C41 108 18 137 24 160C31 188 82 194 139 171C184 153 221 121 232 92C239 75 232 61 214 54C191 46 155 58 120 85C92 106 72 130 64 153" stroke="url(#orbitStroke)" stroke-width="9" stroke-linecap="round"/>
  </g>

  <path d="M81 88C41 108 18 137 24 160C31 188 82 194 139 171C184 153 221 121 232 92C239 75 232 61 214 54C191 46 155 58 120 85C92 106 72 130 64 153" stroke="url(#orbitStroke)" stroke-width="9" stroke-linecap="round"/>

  <path d="M112 85C145 56 182 46 207 52C217 54 224 59 227 67" stroke="#FFE9B4" stroke-width="3.5" stroke-linecap="round" opacity="0.86"/>
  <path d="M44 164C54 176 75 180 101 177" stroke="#DBF8FF" stroke-width="3.5" stroke-linecap="round" opacity="0.8"/>
</svg>
