<svg width="40" height="40" viewBox="0 0 40 40" fill="none" xmlns="http://www.w3.org/2000/svg">
  <rect width="40" height="40" rx="8" fill="#409EFF"/>
  <path d="M20 10C14.477 10 10 14.477 10 20C10 25.523 14.477 30 20 30C25.523 30 30 25.523 30 20C30 14.477 25.523 10 20 10ZM14.167 20C14.167 16.778 16.778 14.167 20 14.167C23.222 14.167 25.833 16.778 25.833 20C25.833 23.222 23.222 25.833 20 25.833C16.778 25.833 14.167 23.222 14.167 20Z" fill="white"/>
  <circle cx="20" cy="20" r="2.5" fill="white"/>
</svg>